<?xml version="1.0" standalone="no"?>
<!DOCTYPE svg PUBLIC "-//W3C//DTD SVG 20010904//EN"
 "http://www.w3.org/TR/2001/REC-SVG-20010904/DTD/svg10.dtd">
<svg version="1.0" xmlns="http://www.w3.org/2000/svg"
 width="1280.000000pt" height="640.000000pt" viewBox="0 0 1280.000000 640.000000"
 preserveAspectRatio="xMidYMid meet">
<metadata>
Created by potrace 1.15, written by Peter Selinger 2001-2017
</metadata>
<g transform="translate(0.000000,640.000000) scale(0.100000,-0.100000)"
fill="#000000" stroke="none">
<path d="M5855 5229 c-215 -163 -637 -444 -976 -651 -183 -112 -315 -189 -779
-451 -157 -89 -341 -202 -895 -552 -568 -358 -654 -410 -845 -506 -87 -43
-160 -79 -163 -79 -2 0 -7 9 -10 20 -6 25 -77 57 -156 72 -54 10 -63 9 -107
-13 -49 -24 -112 -99 -100 -118 7 -11 65 -21 129 -23 26 0 47 -4 47 -7 0 -4
-42 -17 -94 -30 -88 -21 -96 -21 -125 -7 -49 26 -101 20 -182 -21 -74 -37
-159 -110 -159 -138 0 -11 -11 -15 -40 -15 -45 0 -80 -27 -80 -61 0 -11 13
-34 29 -50 22 -22 39 -29 68 -29 21 0 44 4 51 8 7 5 35 1 65 -9 86 -30 265
-19 332 20 54 31 63 74 30 153 -4 11 18 1 62 -28 37 -26 120 -73 184 -105 81
-40 118 -64 122 -79 7 -27 89 -63 125 -55 19 4 66 -9 157 -43 297 -112 665
-219 973 -284 123 -26 148 -34 117 -36 -22 -2 -70 2 -107 9 -122 22 -259 -15
-266 -73 -3 -22 4 -31 43 -53 64 -38 250 -113 313 -126 48 -10 55 -15 87 -64
19 -30 45 -61 59 -70 42 -28 155 -39 256 -26 121 15 140 25 133 65 -2 17 0 64
5 104 10 66 7 95 -13 145 -5 12 -3 16 6 12 24 -9 387 -53 584 -71 105 -10 192
-19 194 -21 3 -2 -7 -16 -20 -31 -54 -58 -91 -145 -78 -180 23 -60 199 -128
368 -141 109 -9 360 0 516 18 50 6 94 11 98 11 4 0 -8 -21 -28 -46 -57 -75
-45 -107 50 -137 240 -77 577 -66 756 23 53 27 133 102 127 120 -6 18 -227
172 -293 205 -86 43 -184 59 -275 47 -65 -9 -65 -9 -107 26 -24 19 -43 35 -43
36 0 0 192 2 428 2 386 2 749 13 936 31 l70 6 -32 -39 c-38 -46 -42 -88 -10
-105 31 -17 268 -6 337 16 29 9 65 28 78 41 25 25 26 42 8 102 -7 20 -4 22 27
22 19 0 85 7 148 15 62 8 115 13 117 11 3 -2 -16 -48 -41 -102 -24 -55 -48
-111 -51 -126 -5 -21 -16 -28 -52 -37 -31 -8 -61 -27 -97 -60 -28 -27 -87 -71
-131 -98 -97 -59 -104 -78 -51 -139 46 -54 120 -101 199 -127 74 -24 257 -28
352 -8 66 15 230 84 258 109 21 19 16 42 -23 98 l-29 41 152 12 c84 6 184 17
222 22 76 11 297 63 333 79 26 11 28 3 7 -28 -15 -21 -14 -23 37 -55 188 -121
331 -147 594 -112 149 19 257 40 398 77 143 37 182 52 195 77 37 69 -131 296
-305 412 -54 36 -114 74 -133 83 l-33 18 38 24 c22 13 41 24 44 24 3 0 5 -14
6 -30 2 -61 57 -90 170 -90 151 0 278 80 340 213 13 28 22 52 21 53 -9 10
-266 67 -319 71 -63 6 -69 8 -114 54 -26 27 -46 50 -43 51 2 2 67 34 143 71
77 38 177 94 223 124 79 52 86 54 114 43 16 -7 28 -16 27 -19 -7 -15 -128
-118 -167 -141 -70 -41 -59 -52 94 -94 187 -51 332 -65 430 -40 21 5 24 3 22
-22 -3 -40 27 -45 283 -47 203 -2 229 0 253 16 22 14 26 23 21 40 -16 55 -163
170 -231 181 -22 4 -61 0 -93 -8 l-55 -15 -55 40 c-117 83 -203 132 -255 145
-39 8 -64 22 -87 46 -113 117 -291 176 -354 117 -31 -30 -30 -44 6 -71 38 -27
40 -46 3 -20 -46 31 -320 189 -608 350 -381 212 -776 420 -1405 739 -1134 575
-1630 849 -2158 1190 -139 89 -256 163 -260 163 -4 0 -43 -28 -87 -61z m3538
-2993 c-12 -77 22 -113 129 -136 l57 -13 -64 -43 c-120 -78 -190 -142 -241
-219 -26 -41 -51 -75 -54 -75 -3 0 -18 23 -35 51 -39 67 -120 139 -181 163
-83 33 -230 135 -213 150 2 2 60 15 129 30 135 30 401 99 441 115 37 15 38 14
32 -23z"/>
<path d="M10813 3055 c-58 -29 -81 -51 -67 -65 36 -35 209 -71 268 -56 77 19
-28 146 -121 146 -16 0 -52 -11 -80 -25z"/>
<path d="M11515 2907 c-33 -15 -148 -134 -141 -146 10 -16 124 -66 174 -76 31
-6 84 -8 125 -4 79 8 227 47 227 60 0 17 -117 102 -186 135 -81 40 -155 51
-199 31z"/>
<path d="M12012 2661 c-30 -10 -61 -26 -70 -34 -14 -14 -13 -19 12 -51 38 -51
74 -66 153 -66 82 0 133 22 148 63 12 35 0 56 -46 79 -55 28 -135 32 -197 9z"/>
<path d="M975 2612 c-72 -35 -125 -90 -125 -132 0 -16 5 -32 10 -35 18 -11 10
-25 -15 -25 -27 0 -105 -64 -105 -86 0 -27 61 -47 141 -47 65 0 85 5 128 29
37 20 51 33 48 45 -4 13 5 18 48 23 77 9 195 51 224 81 24 24 25 27 11 53 -10
18 -45 42 -104 71 -118 59 -176 64 -261 23z"/>
<path d="M12574 2491 c-44 -20 -114 -86 -114 -107 0 -29 42 -37 169 -31 129 6
171 13 171 28 0 18 -81 97 -114 113 -43 20 -61 20 -112 -3z"/>
<path d="M12 2428 c-20 -20 -14 -55 13 -76 18 -14 49 -23 100 -27 80 -8 173 1
159 15 -17 16 -217 100 -238 100 -12 0 -27 -5 -34 -12z"/>
<path d="M472 2400 c-48 -7 -78 -31 -69 -54 9 -23 55 -20 101 7 68 38 53 59
-32 47z"/>
<path d="M1785 2318 c-128 -88 -84 -149 110 -151 77 -1 97 2 140 23 84 42 73
74 -42 127 -96 44 -144 44 -208 1z"/>
<path d="M2572 2334 c-34 -24 -26 -34 26 -34 89 0 118 19 61 39 -43 15 -60 14
-87 -5z"/>
<path d="M11995 2248 c-22 -12 -60 -36 -84 -54 -43 -33 -43 -34 -19 -43 69
-26 306 -42 337 -22 8 5 11 16 8 25 -9 22 -157 116 -182 116 -11 -1 -38 -10
-60 -22z"/>
<path d="M11097 2236 c-75 -27 -129 -63 -154 -104 -9 -15 -44 -53 -77 -84 -58
-55 -60 -59 -42 -72 20 -17 60 -22 256 -36 306 -22 471 -3 486 57 18 70 -96
215 -195 246 -79 25 -190 22 -274 -7z"/>
<path d="M1358 2187 c-44 -14 -78 -41 -78 -61 0 -25 42 -46 90 -46 46 0 150
26 184 46 24 14 15 41 -16 53 -43 16 -142 21 -180 8z"/>
<path d="M3214 1899 c-17 -5 -37 -16 -44 -24 -11 -13 -9 -20 10 -40 39 -42 99
-59 182 -51 98 10 153 24 173 46 15 16 15 19 0 34 -40 39 -233 61 -321 35z"/>
<path d="M2576 1839 c-55 -13 -103 -38 -111 -57 -10 -28 43 -65 135 -96 154
-51 269 -30 315 57 l20 38 -27 24 c-15 13 -50 28 -78 34 -60 13 -199 13 -254
0z"/>
<path d="M10625 1726 c-27 -13 -63 -38 -80 -55 -36 -39 -29 -56 39 -90 39 -19
62 -24 130 -23 140 1 236 38 236 92 0 35 -24 51 -114 79 -89 28 -149 27 -211
-3z"/>
<path d="M4920 1534 c-8 -2 -40 -13 -70 -22 -41 -13 -71 -33 -121 -79 -37 -35
-72 -63 -79 -63 -24 0 -136 -70 -174 -109 -41 -42 -41 -56 2 -72 36 -14 179
-39 222 -39 50 0 151 28 172 47 17 15 17 18 -4 51 l-22 35 30 -6 c70 -13 344
-30 396 -23 69 9 108 36 108 75 0 57 -99 157 -188 189 -38 14 -244 26 -272 16z"/>
<path d="M7415 1299 c-73 -24 -107 -44 -121 -70 -20 -40 -17 -62 11 -89 22
-21 38 -25 120 -28 80 -4 104 -1 161 19 37 13 74 34 85 47 17 22 17 27 4 52
-22 42 -106 80 -174 79 -31 0 -69 -5 -86 -10z"/>
</g>
</svg>
